<svg xmlns="http://www.w3.org/2000/svg" xmlns:xlink="http://www.w3.org/1999/xlink" xmlns:inkscape="http://www.inkscape.org/namespaces/inkscape" version="1.1" width="341.03999" height="108" viewBox="0 0 341.03999 108">
<defs>
<clipPath id="clip_0">
<path transform="matrix(.24,0,0,.24,0,0)" d="M0 0H1421.875V450H0Z" clip-rule="evenodd"/>
</clipPath>
</defs>
<g clip-path="url(#clip_0)">
<path transform="matrix(.71753016,0,0,.71753016,-674.7873,-845.96798)" stroke-width="1" stroke-linecap="butt" stroke-miterlimit="10" stroke-linejoin="miter" fill="none" stroke="#000000" d="M1115 1200H1247.63"/>
<path transform="matrix(.71753016,0,0,.71753016,-674.7873,-845.96798)" d="M1252.88 1200 1245.88 1203.5 1247.63 1200 1245.88 1196.5 1252.88 1200Z"/>
<path transform="matrix(.71753016,0,0,.71753016,-674.7873,-845.96798)" stroke-width="1" stroke-linecap="butt" stroke-miterlimit="10" stroke-linejoin="miter" fill="none" stroke="#000000" d="M1252.88 1200 1245.88 1203.5 1247.63 1200 1245.88 1196.5 1252.88 1200Z"/>
<text xml:space="preserve" transform="matrix(.71753016 0 0 .71753016 -675.146 -846.3268)" font-size="14" font-family="ArialMT"><tspan y="1195" x="1176.875 1184.659 1192.4431 1200.2272 1203.3352 1211.1193">deploy</tspan></text>
<path transform="matrix(.71753016,0,0,.71753016,-674.7873,-845.96798)" d="M1095.41 1205.2C1095.41 1205.64 1095.05 1205.99 1094.62 1205.99 1094.18 1205.99 1093.82 1205.64 1093.82 1205.2 1093.82 1204.76 1094.18 1204.4 1094.62 1204.4 1095.05 1204.4 1095.41 1204.76 1095.41 1205.2ZM1098.02 1188.99C1097.58 1188.99 1097.22 1188.63 1097.22 1188.19 1097.22 1187.75 1097.58 1187.39 1098.02 1187.39 1098.46 1187.39 1098.81 1187.75 1098.81 1188.19 1098.81 1188.63 1098.46 1188.99 1098.02 1188.99ZM1094.93 1196.94C1094.93 1197.38 1094.57 1197.73 1094.13 1197.73 1093.69 1197.73 1093.33 1197.38 1093.33 1196.94 1093.33 1196.5 1093.69 1196.14 1094.13 1196.14 1094.57 1196.14 1094.93 1196.5 1094.93 1196.94ZM1099.16 1211.03C1099.16 1210.59 1099.52 1210.23 1099.96 1210.23 1100.4 1210.23 1100.76 1210.59 1100.76 1211.03 1100.76 1211.46 1100.4 1211.82 1099.96 1211.82 1099.52 1211.82 1099.16 1211.46 1099.16 1211.03ZM1103.16 1206.53C1102.88 1206.69 1102.7 1206.99 1102.7 1207.31V1212.91L1096.25 1216.72V1212.17H1097.63C1098.06 1213.03 1098.94 1213.63 1099.96 1213.63 1101.4 1213.63 1102.56 1212.46 1102.56 1211.03 1102.56 1209.59 1101.4 1208.42 1099.96 1208.42 1098.75 1208.42 1097.75 1209.25 1097.45 1210.37H1095.34C1094.84 1210.37 1094.44 1210.77 1094.44 1211.27V1217.79L1094.07 1218.01 1090.9 1216.17V1192.74H1093.47V1194.43C1092.35 1194.72 1091.53 1195.73 1091.53 1196.94 1091.53 1198.37 1092.69 1199.54 1094.13 1199.54 1095.57 1199.54 1096.73 1198.37 1096.73 1196.94 1096.73 1195.91 1096.14 1195.04 1095.28 1194.61V1192.74H1098.26C1098.76 1192.74 1099.16 1192.34 1099.16 1191.84V1190.52C1100.02 1190.09 1100.62 1189.21 1100.62 1188.19 1100.62 1186.76 1099.45 1185.59 1098.02 1185.59 1096.58 1185.59 1095.41 1186.76 1095.41 1188.19 1095.41 1189.4 1096.24 1190.41 1097.35 1190.7V1190.93H1090.9V1184.39L1094.88 1182.01 1103.19 1187.07V1192.64C1103.19 1192.97 1103.36 1193.27 1103.64 1193.43L1108.04 1195.92V1198.7H1099.72C1099.22 1198.7 1098.81 1199.11 1098.81 1199.61V1204.05H1096.94C1096.52 1203.19 1095.64 1202.59 1094.62 1202.59 1093.18 1202.59 1092.01 1203.76 1092.01 1205.2 1092.01 1206.63 1093.18 1207.8 1094.62 1207.8 1095.82 1207.8 1096.83 1206.97 1097.12 1205.86H1099.72C1100.22 1205.86 1100.62 1205.45 1100.62 1204.95V1200.51H1108.04V1203.78L1103.16 1206.53ZM1083.93 1203.91C1084.37 1203.91 1084.72 1204.27 1084.72 1204.71 1084.72 1205.15 1084.37 1205.51 1083.93 1205.51 1083.49 1205.51 1083.13 1205.15 1083.13 1204.71 1083.13 1204.27 1083.49 1203.91 1083.93 1203.91ZM1082.64 1189.65C1082.64 1189.21 1083 1188.85 1083.44 1188.85 1083.88 1188.85 1084.24 1189.21 1084.24 1189.65 1084.24 1190.09 1083.88 1190.45 1083.44 1190.45 1083 1190.45 1082.64 1190.09 1082.64 1189.65ZM1079.38 1196.94C1079.38 1197.38 1079.02 1197.73 1078.58 1197.73 1078.14 1197.73 1077.79 1197.38 1077.79 1196.94 1077.79 1196.5 1078.14 1196.14 1078.58 1196.14 1079.02 1196.14 1079.38 1196.5 1079.38 1196.94ZM1084.1 1212.48C1084.1 1212.04 1084.46 1211.69 1084.9 1211.69 1085.34 1211.69 1085.7 1212.04 1085.7 1212.48 1085.7 1212.92 1085.34 1213.28 1084.9 1213.28 1084.46 1213.28 1084.1 1212.92 1084.1 1212.48ZM1085.43 1218 1076.81 1212.91V1207.31C1076.81 1206.98 1076.64 1206.68 1076.35 1206.52L1076.02 1206.34H1078.41V1212.73C1078.41 1213.23 1078.81 1213.63 1079.31 1213.63H1082.57C1083 1214.49 1083.88 1215.09 1084.9 1215.09 1086.33 1215.09 1087.5 1213.92 1087.5 1212.48 1087.5 1211.05 1086.33 1209.88 1084.9 1209.88 1083.69 1209.88 1082.68 1210.71 1082.39 1211.82H1080.22V1205.44C1080.22 1204.94 1079.81 1204.54 1079.31 1204.54H1072.74L1071.96 1204.11V1195.92L1076.36 1193.43C1076.64 1193.27 1076.81 1192.97 1076.81 1192.64V1190.31H1077.92V1194.43C1076.81 1194.72 1075.98 1195.73 1075.98 1196.94 1075.98 1198.37 1077.15 1199.54 1078.58 1199.54 1080.02 1199.54 1081.19 1198.37 1081.19 1196.94 1081.19 1195.91 1080.59 1195.04 1079.73 1194.61V1190.31H1080.93C1081.23 1191.43 1082.23 1192.25 1083.44 1192.25 1084.88 1192.25 1086.04 1191.09 1086.04 1189.65 1086.04 1188.21 1084.88 1187.04 1083.44 1187.04 1082.42 1187.04 1081.54 1187.64 1081.12 1188.5H1076.81V1187.07L1085.12 1182.01 1089.1 1184.39V1194.82H1083.68C1083.18 1194.82 1082.78 1195.22 1082.78 1195.72V1202.38C1081.92 1202.81 1081.32 1203.69 1081.32 1204.71 1081.32 1206.15 1082.49 1207.32 1083.93 1207.32 1085.36 1207.32 1086.53 1206.15 1086.53 1204.71 1086.53 1203.5 1085.7 1202.5 1084.59 1202.2V1196.63H1089.1V1215.82L1085.43 1218ZM1109.85 1195.4C1109.85 1195.07 1109.68 1194.77 1109.39 1194.61L1104.99 1192.12V1186.56C1104.99 1186.25 1104.83 1185.96 1104.56 1185.79L1095.35 1180.18C1095.07 1180 1094.71 1180 1094.42 1180.17L1090 1182.82 1085.58 1180.17C1085.29 1180 1084.93 1180 1084.65 1180.18L1075.44 1185.79C1075.17 1185.95 1075.01 1186.25 1075.01 1186.56V1192.11L1070.61 1194.61C1070.32 1194.77 1070.15 1195.07 1070.15 1195.4V1204.64C1070.15 1204.97 1070.33 1205.27 1070.62 1205.43L1075.01 1207.85V1213.42C1075.01 1213.74 1075.17 1214.04 1075.45 1214.2L1084.97 1219.83C1085.26 1220 1085.61 1220 1085.9 1219.83L1089.7 1217.57 1093.63 1219.84C1093.77 1219.92 1093.92 1219.96 1094.08 1219.96 1094.24 1219.96 1094.4 1219.92 1094.54 1219.83L1104.06 1214.2C1104.34 1214.04 1104.51 1213.74 1104.51 1213.42V1207.84L1109.39 1205.09C1109.68 1204.93 1109.85 1204.63 1109.85 1204.31V1195.4Z" fill="#505050"/>
<text fill="#232f3e" xml:space="preserve" transform="matrix(.71753016 0 0 .71753016 -675.146 -846.3268)" font-size="16" font-family="ArialMT"><tspan y="1235" x="1068.7188 1082.0468 1090.9428 1099.8388 1108.7348">Model</tspan></text>
<path transform="matrix(.71753016,0,0,-.71753016,-674.7873,875.38668)" d="M1262 1183H1281L1290 1192V1216H1262V1183Z" fill="#ffffff"/>
<path transform="matrix(.71753016,0,0,-.71753016,-674.7873,875.38668)" stroke-width="1" stroke-linecap="butt" stroke-miterlimit="10" stroke-linejoin="miter" fill="none" stroke="#000000" d="M1262 1183H1281L1290 1192V1216H1262V1183Z"/>
<path transform="matrix(.71753016,0,0,-.71753016,-674.7873,875.38668)" d="M1281 1183V1192H1290L1281 1183Z" fill-opacity=".05"/>
<path transform="matrix(.71753016,0,0,-.71753016,-674.7873,875.38668)" stroke-width="1" stroke-linecap="butt" stroke-miterlimit="10" stroke-linejoin="miter" fill="none" stroke="#000000" d="M1281 1183V1192H1290"/>
<path transform="matrix(.71753016,0,0,-.71753016,-674.7873,878.25686)" d="M1260 1185H1279L1288 1194V1218H1260V1185Z" fill="#ffffff"/>
<path transform="matrix(.71753016,0,0,-.71753016,-674.7873,878.25686)" stroke-width="1" stroke-linecap="butt" stroke-miterlimit="10" stroke-linejoin="miter" fill="none" stroke="#000000" d="M1260 1185H1279L1288 1194V1218H1260V1185Z"/>
<path transform="matrix(.71753016,0,0,-.71753016,-674.7873,878.25686)" d="M1279 1185V1194H1288L1279 1185Z" fill-opacity=".05"/>
<path transform="matrix(.71753016,0,0,-.71753016,-674.7873,878.25686)" stroke-width="1" stroke-linecap="butt" stroke-miterlimit="10" stroke-linejoin="miter" fill="none" stroke="#000000" d="M1279 1185V1194H1288"/>
<path transform="matrix(.71753016,0,0,-.71753016,-674.7873,881.12698)" d="M1258 1187H1277L1286 1196V1220H1258V1187Z" fill="#ffffff"/>
<path transform="matrix(.71753016,0,0,-.71753016,-674.7873,881.12698)" stroke-width="1" stroke-linecap="butt" stroke-miterlimit="10" stroke-linejoin="miter" fill="none" stroke="#000000" d="M1258 1187H1277L1286 1196V1220H1258V1187Z"/>
<path transform="matrix(.71753016,0,0,-.71753016,-674.7873,881.12698)" d="M1277 1187V1196H1286L1277 1187Z" fill-opacity=".05"/>
<path transform="matrix(.71753016,0,0,-.71753016,-674.7873,881.12698)" stroke-width="1" stroke-linecap="butt" stroke-miterlimit="10" stroke-linejoin="miter" fill="none" stroke="#000000" d="M1277 1187V1196H1286"/>
<text xml:space="preserve" transform="matrix(.71753016 0 0 .71753016 -675.146 -846.3268)" font-size="16" font-family="ArialMT"><tspan y="1236" x="1235.7656 1247.3176 1256.2136 1265.1096 1268.6616 1273.9896 1285.5416 1294.4376 1299.7656 1303.3176">Real-world</tspan></text>
<text xml:space="preserve" transform="matrix(.71753016 0 0 .71753016 -675.146 -846.3268)" font-size="16" font-family="ArialMT"><tspan y="1252" x="1258.4219 1267.3179 1276.2139 1280.6619">data</tspan></text>
<path transform="matrix(.71753016,0,0,.71753016,-675.146,-846.3268)" d="M971 1223C971 1207 971 1199 987 1199 976.33 1199 976.33 1183 987 1183 997.67 1183 997.67 1199 987 1199 1003 1199 1003 1207 1003 1223H971Z" fill="#ffffff"/>
<path transform="matrix(.71753016,0,0,.71753016,-675.146,-846.3268)" stroke-width="2" stroke-linecap="butt" stroke-miterlimit="10" stroke-linejoin="miter" fill="none" stroke="#505050" d="M971 1223C971 1207 971 1199 987 1199 976.33 1199 976.33 1183 987 1183 997.67 1183 997.67 1199 987 1199 1003 1199 1003 1207 1003 1223H971Z"/>
<text xml:space="preserve" transform="matrix(.71753016 0 0 .71753016 -675.146 -846.3268)" font-size="16" font-family="ArialMT"><tspan y="1239" x="946.0781 956.7501 961.1981 965.6461 974.5421 983.4381 992.3341 995.8861 1004.7821 1013.6781 1022.5741">AI enginner</tspan></text>
<path transform="matrix(.71753016,0,0,.71753016,-674.7873,-845.96798)" stroke-width="1" stroke-linecap="butt" stroke-miterlimit="10" stroke-linejoin="miter" fill="none" stroke="#000000" d="M1008 1200H1059.63"/>
<path transform="matrix(.71753016,0,0,.71753016,-674.7873,-845.96798)" d="M1064.88 1200 1057.88 1203.5 1059.63 1200 1057.88 1196.5 1064.88 1200Z"/>
<path transform="matrix(.71753016,0,0,.71753016,-674.7873,-845.96798)" stroke-width="1" stroke-linecap="butt" stroke-miterlimit="10" stroke-linejoin="miter" fill="none" stroke="#000000" d="M1064.88 1200 1057.88 1203.5 1059.63 1200 1057.88 1196.5 1064.88 1200Z"/>
<text xml:space="preserve" transform="matrix(.71753016 0 0 .71753016 -675.146 -846.3268)" font-size="14" font-family="ArialMT"><tspan y="1193" x="1011.9844 1019.7684 1027.5524 1034.5524 1042.3364 1045.4445 1053.2285">develop</tspan></text>
<path transform="matrix(.71753016,0,0,.71753016,-674.7873,-845.96798)" stroke-width="1" stroke-linecap="butt" stroke-miterlimit="10" stroke-linejoin="miter" fill="none" stroke="#000000" d="M1090 1240C1090 1253.3334 1100.21 1260 1120.63 1260"/>
<path transform="matrix(.71753016,0,0,.71753016,-674.7873,-845.96798)" d="M1125.88 1260 1118.88 1263.5 1120.63 1260 1118.88 1256.5 1125.88 1260Z"/>
<path transform="matrix(.71753016,0,0,.71753016,-674.7873,-845.96798)" stroke-width="1" stroke-linecap="butt" stroke-miterlimit="10" stroke-linejoin="miter" fill="none" stroke="#000000" d="M1125.88 1260 1118.88 1263.5 1120.63 1260 1118.88 1256.5 1125.88 1260Z"/>
<text xml:space="preserve" transform="matrix(.71753016 0 0 .71753016 -675.146 -846.3268)" font-size="14" font-family="ArialMT"><tspan y="1265" x="1048.9688 1056.7528 1061.4148 1069.1989 1076.9829 1080.091 1087.091">predict</tspan></text>
<path transform="matrix(.71753016,0,0,.71753016,-674.7873,-845.96798)" stroke-width="1" stroke-linecap="butt" stroke-miterlimit="10" stroke-linejoin="miter" fill="none" stroke="#000000" d="M1294 1200C1330.8667 1200 1349.3067 1204.5433 1349.32 1213.63"/>
<path transform="matrix(.71753016,0,0,.71753016,-674.7873,-845.96798)" d="M1349.33 1218.88 1345.82 1211.89 1349.32 1213.63 1352.82 1211.88 1349.33 1218.88Z"/>
<path transform="matrix(.71753016,0,0,.71753016,-674.7873,-845.96798)" stroke-width="1" stroke-linecap="butt" stroke-miterlimit="10" stroke-linejoin="miter" fill="none" stroke="#000000" d="M1349.33 1218.88 1345.82 1211.89 1349.32 1213.63 1352.82 1211.88 1349.33 1218.88Z"/>
<text xml:space="preserve" transform="matrix(.71753016 0 0 .71753016 -675.146 -846.3268)" font-size="14" font-family="ArialMT"><tspan y="1194" x="1307 1314.784 1319.446 1327.2301 1335.0142 1338.1222 1345.1222">predict</tspan></text>
<text xml:space="preserve" transform="matrix(.71753016 0 0 .71753016 -675.146 -846.3268)" font-size="16" font-family="ArialMT"><tspan y="1311" x="1321.6563 1334.9843 1338.5363 1346.5363 1354.5363 1358.0883 1366.9843 1374.9843 1382.9843 1386.5363 1390.9843 1394.5363 1403.4323">Misclassified</tspan></text>
<path transform="matrix(.71753016,0,0,.71753016,-674.7873,-845.96798)" d="M1320 1231H1365V1242H1320Z" fill="#66cc00"/>
<text xml:space="preserve" transform="matrix(.71753016 0 0 .71753016 -675.146 -846.3268)" font-size="10" font-family="ArialMT"><tspan y="1240" x="1322 1327.56 1333.1201 1338.6802 1344.2402 1347.0203 1350.3502 1355.9103 1358.1303 1363.6903 1366.4703 1368.6903 1374.2504 1379.8104 1384.8104 1390.3705 1392.5905">good relationship</tspan></text>
<path transform="matrix(.71753016,0,0,.71753016,-674.7873,-845.96798)" d="M1320 1257H1354V1268H1320Z" fill="#ea6b66"/>
<text xml:space="preserve" transform="matrix(.71753016 0 0 .71753016 -675.146 -846.3268)" font-size="10" font-family="ArialMT"><tspan y="1266" x="1322 1327.56 1333.1201 1338.1201 1340.3401 1345.9002 1348.6802">anxiety</tspan></text>
<path transform="matrix(.71753016,0,0,.71753016,-674.7873,-845.96798)" d="M1320 1270H1338V1281H1320Z" fill="#66cc00"/>
<text xml:space="preserve" transform="matrix(.71753016 0 0 .71753016 -675.146 -846.3268)" font-size="10" font-family="ArialMT"><tspan y="1279" x="1322 1327.56 1329.78 1333.11 1335.89 1341.4501 1347.0101 1352.5702">birthday</tspan></text>
<path transform="matrix(.71753016,0,0,.71753016,-674.7873,-845.96798)" d="M1320 1283H1328V1294H1320Z" fill="#ea6b66"/>
<text xml:space="preserve" transform="matrix(.71753016 0 0 .71753016 -675.146 -846.3268)" font-size="10" font-family="ArialMT"><tspan y="1292" x="1322 1327 1332.56 1334.78 1339.78 1342 1347.56">suicide</tspan></text>
<path transform="matrix(.71753016,0,0,.71753016,-674.7873,-845.96798)" d="M1320 1244H1360V1255H1320Z" fill="#66cc00"/>
<text xml:space="preserve" transform="matrix(.71753016 0 0 .71753016 -675.146 -846.3268)" font-size="10" font-family="ArialMT"><tspan y="1253" x="1322 1329.22 1334.78 1338.11 1340.33 1345.33 1348.11 1356.44 1362">Christmas</tspan></text>
<text fill="#66cc00" xml:space="preserve" transform="matrix(.71753016 0 0 .71753016 -675.146 -846.3268)" font-size="10" font-family="Arial" font-weight="bold" font-style="italic"><tspan y="1226" x="1354.2031 1359.7632 1362.5432 1368.1033 1373.6633">clean</tspan></text>
<path transform="matrix(.71753016,0,0,.71753016,-674.7873,-845.96798)" d="M1320 1231H1414V1294H1320Z" fill="#ffffff" fill-opacity=".64"/>
<path transform="matrix(.71753016,0,0,.71753016,-675.146,-846.3268)" d="M1357 1262.5C1359.47 1259.33 1363.13 1257.5 1367 1257.5 1370.87 1257.5 1374.53 1259.33 1377 1262.5 1374.53 1265.67 1370.87 1267.5 1367 1267.5 1363.13 1267.5 1359.47 1265.67 1357 1262.5Z" fill="#ffffff"/>
<path transform="matrix(.71753016,0,0,.71753016,-675.146,-846.3268)" stroke-width="2" stroke-linecap="butt" stroke-miterlimit="10" stroke-linejoin="miter" fill="none" stroke="#505050" d="M1357 1262.5C1359.47 1259.33 1363.13 1257.5 1367 1257.5 1370.87 1257.5 1374.53 1259.33 1377 1262.5 1374.53 1265.67 1370.87 1267.5 1367 1267.5 1363.13 1267.5 1359.47 1265.67 1357 1262.5Z"/>
<path transform="matrix(.71753016,0,0,.71753016,-675.146,-846.3268)" d="M1370.6 1262.5C1370.5999 1263.0086 1370.5084 1263.4978 1370.3257 1263.9677 1370.143 1264.4376 1369.8829 1264.8524 1369.5454 1265.2122 1369.2078 1265.5717 1368.8185 1265.8488 1368.3776 1266.0435 1367.9364 1266.238 1367.4772 1266.3355 1367 1266.3356 1366.5225 1266.3355 1366.0632 1266.238 1365.6222 1266.0435 1365.181 1265.8488 1364.7918 1265.5717 1364.4542 1265.2122 1364.1167 1264.8524 1363.8566 1264.4376 1363.6738 1263.9677 1363.4913 1263.4978 1363.4 1263.0086 1363.4 1262.5 1363.4 1261.9913 1363.4913 1261.5021 1363.674 1261.0322 1363.8567 1260.5623 1364.1168 1260.1475 1364.4545 1259.7879 1364.7919 1259.4281 1365.1812 1259.151 1365.6222 1258.9563 1366.0632 1258.7619 1366.5225 1258.6646 1367 1258.6646 1367.4772 1258.6646 1367.9364 1258.7619 1368.3776 1258.9563 1368.8185 1259.151 1369.2078 1259.4281 1369.5454 1259.7879 1369.8829 1260.1475 1370.143 1260.5623 1370.3257 1261.0322 1370.5084 1261.5021 1370.5999 1261.9913 1370.6 1262.5Z" fill="#ffffff"/>
<path transform="matrix(.71753016,0,0,.71753016,-675.146,-846.3268)" stroke-width="2" stroke-linecap="butt" stroke-miterlimit="4" stroke-linejoin="miter" fill="none" stroke="#505050" d="M1370.6 1262.5C1370.5999 1263.0086 1370.5084 1263.4978 1370.3257 1263.9677 1370.143 1264.4376 1369.8829 1264.8524 1369.5454 1265.2122 1369.2078 1265.5717 1368.8185 1265.8488 1368.3776 1266.0435 1367.9364 1266.238 1367.4772 1266.3355 1367 1266.3356 1366.5225 1266.3355 1366.0632 1266.238 1365.6222 1266.0435 1365.181 1265.8488 1364.7918 1265.5717 1364.4542 1265.2122 1364.1167 1264.8524 1363.8566 1264.4376 1363.6738 1263.9677 1363.4913 1263.4978 1363.4 1263.0086 1363.4 1262.5 1363.4 1261.9913 1363.4913 1261.5021 1363.674 1261.0322 1363.8567 1260.5623 1364.1168 1260.1475 1364.4545 1259.7879 1364.7919 1259.4281 1365.1812 1259.151 1365.6222 1258.9563 1366.0632 1258.7619 1366.5225 1258.6646 1367 1258.6646 1367.4772 1258.6646 1367.9364 1258.7619 1368.3776 1258.9563 1368.8185 1259.151 1369.2078 1259.4281 1369.5454 1259.7879 1369.8829 1260.1475 1370.143 1260.5623 1370.3257 1261.0322 1370.5084 1261.5021 1370.5999 1261.9913 1370.6 1262.5Z"/>
<path transform="matrix(.71753016,0,0,.71753016,-675.146,-846.3268)" d="M1369.4 1262.5C1369.3999 1262.839 1369.3389 1263.1652 1369.217 1263.4783 1369.0953 1263.7916 1368.9219 1264.0681 1368.6969 1264.308 1368.4718 1264.5477 1368.2123 1264.7326 1367.9183 1264.8623 1367.6243 1264.9921 1367.3182 1265.057 1367 1265.057 1366.6817 1265.057 1366.3755 1264.9921 1366.0814 1264.8623 1365.7874 1264.7326 1365.528 1264.5477 1365.303 1264.308 1365.0778 1264.0681 1364.9043 1263.7916 1364.7826 1263.4783 1364.6608 1263.1652 1364.5999 1262.839 1364.6 1262.5 1364.5999 1262.1609 1364.6608 1261.8346 1364.7825 1261.5213 1364.9043 1261.2081 1365.0778 1260.9317 1365.3027 1260.6919 1365.5277 1260.452 1365.7874 1260.2673 1366.0814 1260.1376 1366.3755 1260.0078 1366.6817 1259.943 1367 1259.943 1367.3182 1259.943 1367.6243 1260.0078 1367.9183 1260.1376 1368.2123 1260.2673 1368.4718 1260.452 1368.6969 1260.6919 1368.9219 1260.9317 1369.0953 1261.2081 1369.217 1261.5213 1369.3389 1261.8346 1369.3999 1262.1609 1369.4 1262.5Z" fill="#ffffff"/>
<path transform="matrix(.71753016,0,0,.71753016,-675.146,-846.3268)" stroke-width="2" stroke-linecap="butt" stroke-miterlimit="4" stroke-linejoin="miter" fill="none" stroke="#505050" d="M1369.4 1262.5C1369.3999 1262.839 1369.3389 1263.1652 1369.217 1263.4783 1369.0953 1263.7916 1368.9219 1264.0681 1368.6969 1264.308 1368.4718 1264.5477 1368.2123 1264.7326 1367.9183 1264.8623 1367.6243 1264.9921 1367.3182 1265.057 1367 1265.057 1366.6817 1265.057 1366.3755 1264.9921 1366.0814 1264.8623 1365.7874 1264.7326 1365.528 1264.5477 1365.303 1264.308 1365.0778 1264.0681 1364.9043 1263.7916 1364.7826 1263.4783 1364.6608 1263.1652 1364.5999 1262.839 1364.6 1262.5 1364.5999 1262.1609 1364.6608 1261.8346 1364.7825 1261.5213 1364.9043 1261.2081 1365.0778 1260.9317 1365.3027 1260.6919 1365.5277 1260.452 1365.7874 1260.2673 1366.0814 1260.1376 1366.3755 1260.0078 1366.6817 1259.943 1367 1259.943 1367.3182 1259.943 1367.6243 1260.0078 1367.9183 1260.1376 1368.2123 1260.2673 1368.4718 1260.452 1368.6969 1260.6919 1368.9219 1260.9317 1369.0953 1261.2081 1369.217 1261.5213 1369.3389 1261.8346 1369.3999 1262.1609 1369.4 1262.5Z"/>
<path transform="matrix(.5073704,.5073704,-.5073704,.5073704,253.05619,-1274.2167)" d="M1355 1260.83H1379V1264.1699H1355Z" fill="#505050"/>
<path transform="matrix(.5073704,.5073704,-.5073704,.5073704,253.05619,-1274.2167)" stroke-width="1.2" stroke-linecap="butt" stroke-miterlimit="4" stroke-linejoin="miter" fill="none" stroke="#ffffff" d="M1355 1260.83H1379V1264.1699H1355Z"/>
<text xml:space="preserve" transform="matrix(.71753016 0 0 .71753016 -675.146 -846.3268)" font-size="16" font-family="ArialMT"><tspan y="1311" x="1151.7656 1163.3176 1172.2136 1177.5416 1182.8696 1191.7656 1199.7656">Correct</tspan></text>
<text fill="#ea6b66" xml:space="preserve" transform="matrix(.71753016 0 0 .71753016 -675.146 -846.3268)" font-size="10" font-family="Arial" font-weight="bold" font-style="italic"><tspan y="1227" x="1157.4375 1163.5475 1169.1076 1172.4375 1177.9976 1183.5576 1186.8876 1192.4476">detected</tspan></text>
<path transform="matrix(.71753016,0,0,.71753016,-674.7873,-845.96798)" d="M1131 1232H1225V1243H1131Z" fill="#ea6b66"/>
<text xml:space="preserve" transform="matrix(.71753016 0 0 .71753016 -675.146 -846.3268)" font-size="10" font-family="ArialMT"><tspan y="1241" x="1133 1136.33 1139.11 1144.67 1147.2676 1150.0476 1158.3776 1163.3776 1168.3776 1173.9376 1179.4977 1184.4977">r/offmychest</tspan></text>
<path transform="matrix(.71753016,0,0,.71753016,-674.7873,-845.96798)" d="M1131 1245H1205V1256H1131Z" fill="#ea6b66"/>
<text xml:space="preserve" transform="matrix(.71753016 0 0 .71753016 -675.146 -846.3268)" font-size="10" font-family="ArialMT"><tspan y="1254" x="1133 1138.56 1144.1201 1147.4501 1152.4501 1154.67 1160.2301 1165.7902 1168.5702 1173.5702 1176.3502 1181.9103 1187.4703 1193.0304 1198.5905">nursing student</tspan></text>
<path transform="matrix(.71753016,0,0,.71753016,-674.7873,-845.96798)" d="M1131 1258H1175V1269H1131Z" fill="#ea6b66"/>
<text xml:space="preserve" transform="matrix(.71753016 0 0 .71753016 -675.146 -846.3268)" font-size="10" font-family="ArialMT"><tspan y="1267" x="1133 1138.56 1144.1201 1149.1201 1151.3401 1156.9002 1159.6802">anxiety</tspan></text>
<path transform="matrix(.71753016,0,0,.71753016,-674.7873,-845.96798)" d="M1132 1271H1166V1282H1132Z" fill="#ea6b66"/>
<text xml:space="preserve" transform="matrix(.71753016 0 0 .71753016 -675.146 -846.3268)" font-size="10" font-family="ArialMT"><tspan y="1280" x="1134 1136.78 1142.3401 1147.3401 1152.9002 1155.6802 1161.2402 1164.5702 1170.1303 1175.1303 1180.6903">take prozac</tspan></text>
<path transform="matrix(.71753016,0,0,.71753016,-674.7873,-845.96798)" d="M1132 1284H1146V1295H1132Z" fill="#ea6b66"/>
<text xml:space="preserve" transform="matrix(.71753016 0 0 .71753016 -675.146 -846.3268)" font-size="10" font-family="ArialMT"><tspan y="1293" x="1134 1139 1144.56 1146.78 1151.78 1154 1159.56">suicide</tspan></text>
<path transform="matrix(.71753016,0,0,.71753016,-674.7873,-845.96798)" d="M1131 1232H1225V1295H1131Z" fill="#ffffff" fill-opacity=".64"/>
<path transform="matrix(.71753016,0,0,.71753016,-675.146,-846.3268)" d="M1168 1263.5C1170.47 1260.33 1174.13 1258.5 1178 1258.5 1181.87 1258.5 1185.53 1260.33 1188 1263.5 1185.53 1266.67 1181.87 1268.5 1178 1268.5 1174.13 1268.5 1170.47 1266.67 1168 1263.5Z" fill="#ffffff"/>
<path transform="matrix(.71753016,0,0,.71753016,-675.146,-846.3268)" stroke-width="2" stroke-linecap="butt" stroke-miterlimit="10" stroke-linejoin="miter" fill="none" stroke="#505050" d="M1168 1263.5C1170.47 1260.33 1174.13 1258.5 1178 1258.5 1181.87 1258.5 1185.53 1260.33 1188 1263.5 1185.53 1266.67 1181.87 1268.5 1178 1268.5 1174.13 1268.5 1170.47 1266.67 1168 1263.5Z"/>
<path transform="matrix(.71753016,0,0,.71753016,-675.146,-846.3268)" d="M1181.6 1263.5C1181.5999 1264.0086 1181.5086 1264.4978 1181.3258 1264.9677 1181.1432 1265.4375 1180.883 1265.8523 1180.5455 1266.212 1180.208 1266.5717 1179.8186 1266.8488 1179.3776 1267.0435 1178.9365 1267.2382 1178.4773 1267.3355 1178 1267.3356 1177.5226 1267.3355 1177.0634 1267.2382 1176.6223 1267.0435 1176.1812 1266.8488 1175.7919 1266.5717 1175.4544 1266.212 1175.1168 1265.8523 1174.8566 1265.4375 1174.6738 1264.9677 1174.4912 1264.4978 1174.3999 1264.0086 1174.4 1263.5 1174.3999 1262.9913 1174.4912 1262.502 1174.6738 1262.032 1174.8566 1261.5621 1175.1168 1261.1473 1175.4544 1260.7879 1175.7919 1260.4281 1176.1812 1260.151 1176.6223 1259.9563 1177.0634 1259.7619 1177.5226 1259.6646 1178 1259.6646 1178.4773 1259.6646 1178.9365 1259.7619 1179.3776 1259.9563 1179.8186 1260.151 1180.208 1260.4281 1180.5455 1260.7879 1180.883 1261.1473 1181.1432 1261.5621 1181.3258 1262.032 1181.5086 1262.502 1181.5999 1262.9913 1181.6 1263.5Z" fill="#ffffff"/>
<path transform="matrix(.71753016,0,0,.71753016,-675.146,-846.3268)" stroke-width="2" stroke-linecap="butt" stroke-miterlimit="4" stroke-linejoin="miter" fill="none" stroke="#505050" d="M1181.6 1263.5C1181.5999 1264.0086 1181.5086 1264.4978 1181.3258 1264.9677 1181.1432 1265.4375 1180.883 1265.8523 1180.5455 1266.212 1180.208 1266.5717 1179.8186 1266.8488 1179.3776 1267.0435 1178.9365 1267.2382 1178.4773 1267.3355 1178 1267.3356 1177.5226 1267.3355 1177.0634 1267.2382 1176.6223 1267.0435 1176.1812 1266.8488 1175.7919 1266.5717 1175.4544 1266.212 1175.1168 1265.8523 1174.8566 1265.4375 1174.6738 1264.9677 1174.4912 1264.4978 1174.3999 1264.0086 1174.4 1263.5 1174.3999 1262.9913 1174.4912 1262.502 1174.6738 1262.032 1174.8566 1261.5621 1175.1168 1261.1473 1175.4544 1260.7879 1175.7919 1260.4281 1176.1812 1260.151 1176.6223 1259.9563 1177.0634 1259.7619 1177.5226 1259.6646 1178 1259.6646 1178.4773 1259.6646 1178.9365 1259.7619 1179.3776 1259.9563 1179.8186 1260.151 1180.208 1260.4281 1180.5455 1260.7879 1180.883 1261.1473 1181.1432 1261.5621 1181.3258 1262.032 1181.5086 1262.502 1181.5999 1262.9913 1181.6 1263.5Z"/>
<path transform="matrix(.71753016,0,0,.71753016,-675.146,-846.3268)" d="M1180.4 1263.5C1180.3999 1263.839 1180.3389 1264.1652 1180.217 1264.4784 1180.0953 1264.7918 1179.922 1265.0682 1179.697 1265.3081 1179.4719 1265.5477 1179.2124 1265.7326 1178.9183 1265.8623 1178.6243 1265.9921 1178.3182 1266.0569 1178 1266.057 1177.6817 1266.0569 1177.3755 1265.9921 1177.0814 1265.8623 1176.7874 1265.7326 1176.5278 1265.5477 1176.3029 1265.3081 1176.0778 1265.0682 1175.9043 1264.7918 1175.7826 1264.4784 1175.6609 1264.1652 1175.6 1263.839 1175.6 1263.5 1175.6 1263.1608 1175.6609 1262.8346 1175.7826 1262.5214 1175.9043 1262.208 1176.0778 1261.9315 1176.3029 1261.6918 1176.5278 1261.452 1176.7874 1261.2672 1177.0814 1261.1375 1177.3755 1261.0078 1177.6817 1260.943 1178 1260.943 1178.3182 1260.943 1178.6243 1261.0078 1178.9183 1261.1375 1179.2124 1261.2672 1179.4719 1261.452 1179.697 1261.6918 1179.922 1261.9315 1180.0953 1262.208 1180.2172 1262.5214 1180.3389 1262.8346 1180.3999 1263.1608 1180.4 1263.5Z" fill="#ffffff"/>
<path transform="matrix(.71753016,0,0,.71753016,-675.146,-846.3268)" stroke-width="2" stroke-linecap="butt" stroke-miterlimit="4" stroke-linejoin="miter" fill="none" stroke="#505050" d="M1180.4 1263.5C1180.3999 1263.839 1180.3389 1264.1652 1180.217 1264.4784 1180.0953 1264.7918 1179.922 1265.0682 1179.697 1265.3081 1179.4719 1265.5477 1179.2124 1265.7326 1178.9183 1265.8623 1178.6243 1265.9921 1178.3182 1266.0569 1178 1266.057 1177.6817 1266.0569 1177.3755 1265.9921 1177.0814 1265.8623 1176.7874 1265.7326 1176.5278 1265.5477 1176.3029 1265.3081 1176.0778 1265.0682 1175.9043 1264.7918 1175.7826 1264.4784 1175.6609 1264.1652 1175.6 1263.839 1175.6 1263.5 1175.6 1263.1608 1175.6609 1262.8346 1175.7826 1262.5214 1175.9043 1262.208 1176.0778 1261.9315 1176.3029 1261.6918 1176.5278 1261.452 1176.7874 1261.2672 1177.0814 1261.1375 1177.3755 1261.0078 1177.6817 1260.943 1178 1260.943 1178.3182 1260.943 1178.6243 1261.0078 1178.9183 1261.1375 1179.2124 1261.2672 1179.4719 1261.452 1179.697 1261.6918 1179.922 1261.9315 1180.0953 1262.208 1180.2172 1262.5214 1180.3389 1262.8346 1180.3999 1263.1608 1180.4 1263.5Z"/>
<path transform="matrix(.5073704,.5073704,-.5073704,.5073704,213.84336,-1178.1135)" d="M1166 1261.83H1190V1265.1699H1166Z" fill="#505050"/>
<path transform="matrix(.5073704,.5073704,-.5073704,.5073704,213.84336,-1178.1135)" stroke-width="1.2" stroke-linecap="butt" stroke-miterlimit="4" stroke-linejoin="miter" fill="none" stroke="#ffffff" d="M1166 1261.83H1190V1265.1699H1166Z"/>
</g>
</svg>
