<svg xmlns="http://www.w3.org/2000/svg" xmlns:xlink="http://www.w3.org/1999/xlink" xmlns:inkscape="http://www.inkscape.org/namespaces/inkscape" version="1.1" width="408" height="110.88" viewBox="0 0 408 110.88">
<defs>
<clipPath id="clip_0">
<path transform="matrix(.24,0,0,.24,0,0)" d="M0 0H1700V462.01173H0Z" clip-rule="evenodd"/>
</clipPath>
</defs>
<g clip-path="url(#clip_0)">
<text xml:space="preserve" transform="matrix(.7175364 0 0 .7175364 -617.7469 -509.80964)" font-size="16" font-family="ArialMT"><tspan y="830" x="974.34378 983.52346 988.85147 997.74746 1005.74746 1010.19546 1021.74746 1030.6434 1035.9714 1040.4194 1049.3154 1052.8674 1061.7634 1070.6594 1078.6594">Trustworthiness</tspan></text>
<text xml:space="preserve" transform="matrix(.7175364 0 0 .7175364 -617.7469 -509.80964)" font-size="16" font-family="ArialMT"><tspan y="846" x="1006.9375 1019.3855 1024.7135 1033.6095 1041.6095 1045.1615">Oracle</tspan></text>
<path transform="matrix(.7175364,0,0,.7175364,-617.38809,-509.45085)" d="M1015.9 779H1041.1C1041.8159 779 1042.5048 779.13699 1043.1664 779.41098 1043.8279 779.68496 1044.4119 780.07516 1044.9183 780.58157 1045.4247 781.0879 1045.8148 781.6719 1046.0889 782.3335 1046.3629 782.99508 1046.4999 783.6839 1046.5 784.4V809.6C1046.4999 810.316 1046.3629 811.0048 1046.0889 811.66647 1045.8148 812.328 1045.4247 812.9119 1044.9183 813.41836 1044.4119 813.9246 1043.8279 814.3148 1043.1664 814.5888 1042.5048 814.8629 1041.8159 814.99996 1041.1 815H1015.9C1015.1839 814.99996 1014.49508 814.8629 1013.83346 814.5888 1013.1719 814.3148 1012.5879 813.9246 1012.0816 813.41836 1011.5752 812.9119 1011.185 812.328 1010.91098 811.66647 1010.63699 811.0048 1010.49996 810.316 1010.5 809.6V784.4C1010.49996 783.6839 1010.63699 782.99508 1010.91098 782.3335 1011.185 781.6719 1011.5752 781.0879 1012.0816 780.58157 1012.5879 780.07516 1013.1719 779.68496 1013.8335 779.41098 1014.49508 779.13699 1015.1839 779 1015.9 779Z" fill="#ffffff"/>
<path transform="matrix(.7175364,0,0,.7175364,-617.38809,-509.45085)" stroke-width="1" stroke-linecap="butt" stroke-miterlimit="4" stroke-linejoin="miter" fill="none" stroke="#000000" d="M1015.9 779H1041.1C1041.8159 779 1042.5048 779.13699 1043.1664 779.41098 1043.8279 779.68496 1044.4119 780.07516 1044.9183 780.58157 1045.4247 781.0879 1045.8148 781.6719 1046.0889 782.3335 1046.3629 782.99508 1046.4999 783.6839 1046.5 784.4V809.6C1046.4999 810.316 1046.3629 811.0048 1046.0889 811.66647 1045.8148 812.328 1045.4247 812.9119 1044.9183 813.41836 1044.4119 813.9246 1043.8279 814.3148 1043.1664 814.5888 1042.5048 814.8629 1041.8159 814.99996 1041.1 815H1015.9C1015.1839 814.99996 1014.49508 814.8629 1013.83346 814.5888 1013.1719 814.3148 1012.5879 813.9246 1012.0816 813.41836 1011.5752 812.9119 1011.185 812.328 1010.91098 811.66647 1010.63699 811.0048 1010.49996 810.316 1010.5 809.6V784.4C1010.49996 783.6839 1010.63699 782.99508 1010.91098 782.3335 1011.185 781.6719 1011.5752 781.0879 1012.0816 780.58157 1012.5879 780.07516 1013.1719 779.68496 1013.8335 779.41098 1014.49508 779.13699 1015.1839 779 1015.9 779Z"/>
<path transform="matrix(-.7175364,0,0,.7175364,858.5843,-509.45085)" d="M1038.93 804.55 1040.43 806.03C1040.5 806.11 1040.48 806.24 1040.43 806.29L1038.41 808.29C1038.19 808.52 1037.47 808.83 1036.83 808.45L1035.91 807.58 1038.93 804.55ZM1025.93 801.81C1029.63 801.81 1033.17 798.64 1033.17 794.43 1033.17 790.37 1029.94 786.98 1025.82 786.98 1021.6 786.98 1018.33 790.32 1018.33 794.38 1018.33 798.02 1021.11 801.81 1025.93 801.81ZM1025.98 803.66C1020.27 803.66 1016.5 799.19 1016.5 794.43 1016.5 789.85 1020.09 785.17 1025.79 785.17 1030.94 785.17 1035.01 789.37 1035.01 794.37 1035.01 796.43 1034.35 798.41 1033.16 799.97L1034.55 801.36C1035.1 801.15 1035.72 801.3 1036.02 801.63L1038.36 803.99 1035.34 807.01 1032.01 803.74 1032.63 803.12 1031.31 801.81C1029.61 803.12 1027.42 803.66 1025.98 803.66Z" fill="#505050"/>
<path transform="matrix(.7175364,0,0,.7175364,-617.38809,-509.45085)" stroke-width="1.25" stroke-linecap="butt" stroke-miterlimit="10" stroke-linejoin="miter" fill="none" stroke="#007fff" d="M1134 805H1059.84"/>
<path transform="matrix(.7175364,0,0,.7175364,-617.38809,-509.45085)" d="M1054.4 805 1061.65 801.38 1059.84 805 1061.65 808.63 1054.4 805Z" fill="#007fff"/>
<path transform="matrix(.7175364,0,0,.7175364,-617.38809,-509.45085)" stroke-width="1.25" stroke-linecap="butt" stroke-miterlimit="10" stroke-linejoin="miter" fill="none" stroke="#007fff" d="M1054.4 805 1061.65 801.38 1059.84 805 1061.65 808.63 1054.4 805Z"/>
<text fill="#027ffe" xml:space="preserve" transform="matrix(.7175364 0 0 .7175364 -617.7469 -509.80964)" font-size="14" font-family="ArialMT"><tspan y="800" x="1065.7188 1073.5028 1080.5028 1087.5028 1095.2869 1102.2869">assess</tspan></text>
<path transform="matrix(.7175364,0,0,.7175364,-617.38809,-509.45085)" stroke-width="1.25" stroke-linecap="butt" stroke-miterlimit="10" stroke-linejoin="miter" fill="none" stroke="#007fff" d="M1004 805C966.6667 805 948 798.61337 948 785.84"/>
<path transform="matrix(.7175364,0,0,.7175364,-617.38809,-509.45085)" d="M948 780.4 951.63 787.65 948 785.84 944.38 787.65 948 780.4Z" fill="#007fff"/>
<path transform="matrix(.7175364,0,0,.7175364,-617.38809,-509.45085)" stroke-width="1.25" stroke-linecap="butt" stroke-miterlimit="10" stroke-linejoin="miter" fill="none" stroke="#007fff" d="M948 780.4 951.63 787.65 948 785.84 944.38 787.65 948 780.4Z"/>
<text fill="#027ffe" xml:space="preserve" transform="matrix(.7175364 0 0 .7175364 -617.7469 -509.80964)" font-size="14" font-family="ArialMT"><tspan y="798" x="874.1875 881.9715 885.07949 892.86349 897.52548 901.4175 905.3095 908.4175 915.4175 922.4175 930.2015 937.9855">alert issues</tspan></text>
<path transform="matrix(.7175364,0,0,.7175364,-617.38809,-509.45085)" stroke-width="1" stroke-linecap="butt" stroke-miterlimit="10" stroke-linejoin="miter" fill="none" stroke="#000000" d="M1088 735H1256.63"/>
<path transform="matrix(.7175364,0,0,.7175364,-617.38809,-509.45085)" d="M1261.88 735 1254.88 738.5 1256.63 735 1254.88 731.5 1261.88 735Z"/>
<path transform="matrix(.7175364,0,0,.7175364,-617.38809,-509.45085)" stroke-width="1" stroke-linecap="butt" stroke-miterlimit="10" stroke-linejoin="miter" fill="none" stroke="#000000" d="M1261.88 735 1254.88 738.5 1256.63 735 1254.88 731.5 1261.88 735Z"/>
<text xml:space="preserve" transform="matrix(.7175364 0 0 .7175364 -617.7469 -509.80964)" font-size="14" font-family="ArialMT"><tspan y="730" x="1171.875 1179.659 1187.4431 1195.2272 1198.3352 1206.1193">deploy</tspan></text>
<path transform="matrix(.7175364,0,0,.7175364,-617.38809,-509.45085)" d="M1067.41 740.2C1067.41 740.64 1067.05 740.99 1066.62 740.99 1066.18 740.99 1065.82 740.64 1065.82 740.2 1065.82 739.76 1066.18 739.4 1066.62 739.4 1067.05 739.4 1067.41 739.76 1067.41 740.2ZM1070.02 723.99C1069.58 723.99 1069.22 723.63 1069.22 723.19 1069.22 722.75 1069.58 722.39 1070.02 722.39 1070.46 722.39 1070.81 722.75 1070.81 723.19 1070.81 723.63 1070.46 723.99 1070.02 723.99ZM1066.93 731.94C1066.93 732.38 1066.57 732.73 1066.13 732.73 1065.69 732.73 1065.33 732.38 1065.33 731.94 1065.33 731.5 1065.69 731.14 1066.13 731.14 1066.57 731.14 1066.93 731.5 1066.93 731.94ZM1071.16 746.03C1071.16 745.59 1071.52 745.23 1071.96 745.23 1072.4 745.23 1072.76 745.59 1072.76 746.03 1072.76 746.46 1072.4 746.82 1071.96 746.82 1071.52 746.82 1071.16 746.46 1071.16 746.03ZM1075.16 741.53C1074.88 741.69 1074.7 741.99 1074.7 742.31V747.91L1068.25 751.72V747.17H1069.63C1070.06 748.03 1070.94 748.63 1071.96 748.63 1073.4 748.63 1074.56 747.46 1074.56 746.03 1074.56 744.59 1073.4 743.42 1071.96 743.42 1070.75 743.42 1069.75 744.25 1069.45 745.37H1067.34C1066.84 745.37 1066.44 745.77 1066.44 746.27V752.79L1066.07 753.01 1062.9 751.17V727.74H1065.47V729.43C1064.35 729.72 1063.53 730.73 1063.53 731.94 1063.53 733.37 1064.69 734.54 1066.13 734.54 1067.57 734.54 1068.73 733.37 1068.73 731.94 1068.73 730.91 1068.14 730.04 1067.28 729.61V727.74H1070.26C1070.76 727.74 1071.16 727.34 1071.16 726.84V725.52C1072.02 725.09 1072.62 724.21 1072.62 723.19 1072.62 721.76 1071.45 720.59 1070.02 720.59 1068.58 720.59 1067.41 721.76 1067.41 723.19 1067.41 724.4 1068.24 725.41 1069.35 725.7V725.93H1062.9V719.39L1066.88 717.01 1075.19 722.07V727.64C1075.19 727.97 1075.36 728.27 1075.64 728.43L1080.04 730.92V733.7H1071.72C1071.22 733.7 1070.81 734.11 1070.81 734.61V739.05H1068.94C1068.52 738.19 1067.64 737.59 1066.62 737.59 1065.18 737.59 1064.01 738.76 1064.01 740.2 1064.01 741.63 1065.18 742.8 1066.62 742.8 1067.82 742.8 1068.83 741.97 1069.12 740.86H1071.72C1072.22 740.86 1072.62 740.45 1072.62 739.95V735.51H1080.04V738.78L1075.16 741.53ZM1055.93 738.91C1056.37 738.91 1056.72 739.27 1056.72 739.71 1056.72 740.15 1056.37 740.51 1055.93 740.51 1055.49 740.51 1055.13 740.15 1055.13 739.71 1055.13 739.27 1055.49 738.91 1055.93 738.91ZM1054.64 724.65C1054.64 724.21 1055 723.85 1055.44 723.85 1055.88 723.85 1056.24 724.21 1056.24 724.65 1056.24 725.09 1055.88 725.45 1055.44 725.45 1055 725.45 1054.64 725.09 1054.64 724.65ZM1051.38 731.94C1051.38 732.38 1051.02 732.73 1050.58 732.73 1050.14 732.73 1049.79 732.38 1049.79 731.94 1049.79 731.5 1050.14 731.14 1050.58 731.14 1051.02 731.14 1051.38 731.5 1051.38 731.94ZM1056.1 747.48C1056.1 747.04 1056.46 746.69 1056.9 746.69 1057.34 746.69 1057.7 747.04 1057.7 747.48 1057.7 747.92 1057.34 748.28 1056.9 748.28 1056.46 748.28 1056.1 747.92 1056.1 747.48ZM1057.43 753 1048.81 747.91V742.31C1048.81 741.98 1048.64 741.68 1048.35 741.52L1048.02 741.34H1050.41V747.73C1050.41 748.23 1050.81 748.63 1051.31 748.63H1054.57C1055 749.49 1055.88 750.09 1056.9 750.09 1058.33 750.09 1059.5 748.92 1059.5 747.48 1059.5 746.05 1058.33 744.88 1056.9 744.88 1055.69 744.88 1054.68 745.71 1054.39 746.82H1052.22V740.44C1052.22 739.94 1051.81 739.54 1051.31 739.54H1044.74L1043.96 739.11V730.92L1048.36 728.43C1048.64 728.27 1048.81 727.97 1048.81 727.64V725.31H1049.92V729.43C1048.81 729.72 1047.98 730.73 1047.98 731.94 1047.98 733.37 1049.15 734.54 1050.58 734.54 1052.02 734.54 1053.19 733.37 1053.19 731.94 1053.19 730.91 1052.59 730.04 1051.73 729.61V725.31H1052.93C1053.23 726.43 1054.23 727.25 1055.44 727.25 1056.88 727.25 1058.04 726.09 1058.04 724.65 1058.04 723.21 1056.88 722.04 1055.44 722.04 1054.42 722.04 1053.54 722.64 1053.12 723.5H1048.81V722.07L1057.12 717.01 1061.1 719.39V729.82H1055.68C1055.18 729.82 1054.78 730.22 1054.78 730.72V737.38C1053.92 737.81 1053.32 738.69 1053.32 739.71 1053.32 741.15 1054.49 742.32 1055.93 742.32 1057.36 742.32 1058.53 741.15 1058.53 739.71 1058.53 738.5 1057.7 737.5 1056.59 737.2V731.63H1061.1V750.82L1057.43 753ZM1081.85 730.4C1081.85 730.07 1081.68 729.77 1081.39 729.61L1076.99 727.12V721.56C1076.99 721.25 1076.83 720.96 1076.56 720.79L1067.35 715.18C1067.07 715 1066.71 715 1066.42 715.17L1062 717.82 1057.58 715.17C1057.29 715 1056.93 715 1056.65 715.18L1047.44 720.79C1047.17 720.95 1047.01 721.25 1047.01 721.56V727.11L1042.61 729.61C1042.32 729.77 1042.15 730.07 1042.15 730.4V739.64C1042.15 739.97 1042.33 740.27 1042.62 740.43L1047.01 742.85V748.42C1047.01 748.74 1047.17 749.04 1047.45 749.2L1056.97 754.83C1057.26 755 1057.61 755 1057.9 754.83L1061.7 752.57 1065.63 754.84C1065.77 754.92 1065.92 754.96 1066.08 754.96 1066.24 754.96 1066.4 754.92 1066.54 754.83L1076.06 749.2C1076.34 749.04 1076.51 748.74 1076.51 748.42V742.84L1081.39 740.09C1081.68 739.93 1081.85 739.63 1081.85 739.31V730.4Z" fill="#505050"/>
<text fill="#232f3e" xml:space="preserve" transform="matrix(.7175364 0 0 .7175364 -617.7469 -509.80964)" font-size="16" font-family="ArialMT"><tspan y="770" x="1040.7188 1054.0468 1062.9428 1071.8388 1080.7348">Model</tspan></text>
<path transform="matrix(.7175364,0,0,-.7175364,-617.38809,544.61019)" d="M1271 718H1290L1299 727V751H1271V718Z" fill="#ffffff"/>
<path transform="matrix(.7175364,0,0,-.7175364,-617.38809,544.61019)" stroke-width="1" stroke-linecap="butt" stroke-miterlimit="10" stroke-linejoin="miter" fill="none" stroke="#000000" d="M1271 718H1290L1299 727V751H1271V718Z"/>
<path transform="matrix(.7175364,0,0,-.7175364,-617.38809,544.61019)" d="M1290 718V727H1299L1290 718Z" fill-opacity=".05"/>
<path transform="matrix(.7175364,0,0,-.7175364,-617.38809,544.61019)" stroke-width="1" stroke-linecap="butt" stroke-miterlimit="10" stroke-linejoin="miter" fill="none" stroke="#000000" d="M1290 718V727H1299"/>
<path transform="matrix(.7175364,0,0,-.7175364,-617.38809,547.4802)" d="M1269 720H1288L1297 729V753H1269V720Z" fill="#ffffff"/>
<path transform="matrix(.7175364,0,0,-.7175364,-617.38809,547.4802)" stroke-width="1" stroke-linecap="butt" stroke-miterlimit="10" stroke-linejoin="miter" fill="none" stroke="#000000" d="M1269 720H1288L1297 729V753H1269V720Z"/>
<path transform="matrix(.7175364,0,0,-.7175364,-617.38809,547.4802)" d="M1288 720V729H1297L1288 720Z" fill-opacity=".05"/>
<path transform="matrix(.7175364,0,0,-.7175364,-617.38809,547.4802)" stroke-width="1" stroke-linecap="butt" stroke-miterlimit="10" stroke-linejoin="miter" fill="none" stroke="#000000" d="M1288 720V729H1297"/>
<path transform="matrix(.7175364,0,0,-.7175364,-617.38809,550.3504)" d="M1267 722H1286L1295 731V755H1267V722Z" fill="#ffffff"/>
<path transform="matrix(.7175364,0,0,-.7175364,-617.38809,550.3504)" stroke-width="1" stroke-linecap="butt" stroke-miterlimit="10" stroke-linejoin="miter" fill="none" stroke="#000000" d="M1267 722H1286L1295 731V755H1267V722Z"/>
<path transform="matrix(.7175364,0,0,-.7175364,-617.38809,550.3504)" d="M1286 722V731H1295L1286 722Z" fill-opacity=".05"/>
<path transform="matrix(.7175364,0,0,-.7175364,-617.38809,550.3504)" stroke-width="1" stroke-linecap="butt" stroke-miterlimit="10" stroke-linejoin="miter" fill="none" stroke="#000000" d="M1286 722V731H1295"/>
<text xml:space="preserve" transform="matrix(.7175364 0 0 .7175364 -617.7469 -509.80964)" font-size="16" font-family="ArialMT"><tspan y="771" x="1244.7656 1256.3176 1265.2136 1274.1096 1277.6616 1282.9896 1294.5416 1303.4376 1308.7656 1312.3176">Real-world</tspan></text>
<text xml:space="preserve" transform="matrix(.7175364 0 0 .7175364 -617.7469 -509.80964)" font-size="16" font-family="ArialMT"><tspan y="787" x="1267.4219 1276.3179 1285.2139 1289.6619">data</tspan></text>
<path transform="matrix(.7175364,0,0,.7175364,-617.7469,-509.80964)" d="M919 758C919 742 919 734 935 734 924.33 734 924.33 718 935 718 945.67 718 945.67 734 935 734 951 734 951 742 951 758H919Z" fill="#ffffff"/>
<path transform="matrix(.7175364,0,0,.7175364,-617.7469,-509.80964)" stroke-width="2" stroke-linecap="butt" stroke-miterlimit="10" stroke-linejoin="miter" fill="none" stroke="#505050" d="M919 758C919 742 919 734 935 734 924.33 734 924.33 718 935 718 945.67 718 945.67 734 935 734 951 734 951 742 951 758H919Z"/>
<text xml:space="preserve" transform="matrix(.7175364 0 0 .7175364 -617.7469 -509.80964)" font-size="16" font-family="ArialMT"><tspan y="774" x="894.0781 904.7501 909.1981 913.6461 922.5421 931.4381 940.3341 943.8861 952.7821 961.6781 970.5741">AI enginner</tspan></text>
<path transform="matrix(.7175364,0,0,.7175364,-617.38809,-509.45085)" stroke-width="1" stroke-linecap="butt" stroke-miterlimit="10" stroke-linejoin="miter" fill="none" stroke="#000000" d="M957 729H1030.63"/>
<path transform="matrix(.7175364,0,0,.7175364,-617.38809,-509.45085)" d="M1035.88 729 1028.88 732.5 1030.63 729 1028.88 725.5 1035.88 729Z"/>
<path transform="matrix(.7175364,0,0,.7175364,-617.38809,-509.45085)" stroke-width="1" stroke-linecap="butt" stroke-miterlimit="10" stroke-linejoin="miter" fill="none" stroke="#000000" d="M1035.88 729 1028.88 732.5 1030.63 729 1028.88 725.5 1035.88 729Z"/>
<text xml:space="preserve" transform="matrix(.7175364 0 0 .7175364 -617.7469 -509.80964)" font-size="14" font-family="ArialMT"><tspan y="724" x="970.9844 978.7684 986.55239 993.55239 1001.33639 1004.44436 1012.22836">develop</tspan></text>
<path transform="matrix(.7175364,0,0,.7175364,-617.38809,-509.45085)" stroke-width="1" stroke-linecap="butt" stroke-miterlimit="10" stroke-linejoin="miter" fill="none" stroke="#000000" d="M1088 740C1098 740 1103 747.5 1103 762.5 1103 777.5 1111.8767 785 1129.63 785"/>
<path transform="matrix(.7175364,0,0,.7175364,-617.38809,-509.45085)" d="M1134.88 785 1127.88 788.5 1129.63 785 1127.88 781.5 1134.88 785Z"/>
<path transform="matrix(.7175364,0,0,.7175364,-617.38809,-509.45085)" stroke-width="1" stroke-linecap="butt" stroke-miterlimit="10" stroke-linejoin="miter" fill="none" stroke="#000000" d="M1134.88 785 1127.88 788.5 1129.63 785 1127.88 781.5 1134.88 785Z"/>
<text xml:space="preserve" transform="matrix(.7175364 0 0 .7175364 -617.7469 -509.80964)" font-size="14" font-family="ArialMT"><tspan y="755" x="1106 1113.784 1118.446 1126.2301 1134.0142 1137.1222 1144.1222">predict</tspan></text>
<path transform="matrix(.7175364,0,0,.7175364,-617.38809,-509.45085)" stroke-width="1.25" stroke-linecap="butt" stroke-miterlimit="10" stroke-linejoin="miter" fill="none" stroke="#007fff" d="M1303 735C1338.6666 735 1356.5 738.72 1356.5 746.16"/>
<path transform="matrix(.7175364,0,0,.7175364,-617.38809,-509.45085)" d="M1356.5 751.6 1352.88 744.35 1356.5 746.16 1360.13 744.35 1356.5 751.6Z" fill="#007fff"/>
<path transform="matrix(.7175364,0,0,.7175364,-617.38809,-509.45085)" stroke-width="1.25" stroke-linecap="butt" stroke-miterlimit="10" stroke-linejoin="miter" fill="none" stroke="#007fff" d="M1356.5 751.6 1352.88 744.35 1356.5 746.16 1360.13 744.35 1356.5 751.6Z"/>
<text fill="#027ffe" xml:space="preserve" transform="matrix(.7175364 0 0 .7175364 -617.7469 -509.80964)" font-size="14" font-family="ArialMT"><tspan y="729" x="1326 1333.784 1338.446 1346.2301 1354.0142 1357.1222 1364.1222">predict</tspan></text>
<text xml:space="preserve" transform="matrix(.7175364 0 0 .7175364 -617.7469 -509.80964)" font-size="16" font-family="ArialMT"><tspan y="846" x="1353.7656 1365.3176 1374.2136 1379.5416 1384.8696 1393.7656 1401.7656">Correct</tspan></text>
<text fill="#ea6b66" xml:space="preserve" transform="matrix(.7175364 0 0 .7175364 -617.7469 -509.80964)" font-size="10" font-family="Arial" font-weight="bold" font-style="italic"><tspan y="761" x="1359.4375 1365.5475 1371.1076 1374.4375 1379.9976 1385.5576 1388.8876 1394.4476">detected</tspan></text>
<path transform="matrix(.7175364,0,0,.7175364,-617.38809,-509.45085)" d="M1333 766H1427V777H1333Z" fill="#ea6b66"/>
<text xml:space="preserve" transform="matrix(.7175364 0 0 .7175364 -617.7469 -509.80964)" font-size="10" font-family="ArialMT"><tspan y="775" x="1335 1340.56 1346.1201 1351.1201 1353.3401 1358.9002 1361.6802">anxiety</tspan></text>
<path transform="matrix(.7175364,0,0,.7175364,-617.38809,-509.45085)" d="M1333 792H1353V803H1333Z" fill="#66cc00"/>
<text xml:space="preserve" transform="matrix(.7175364 0 0 .7175364 -617.7469 -509.80964)" font-size="10" font-family="ArialMT"><tspan y="801" x="1335 1340.56 1346.1201 1351.6802 1357.2402 1360.0203 1363.3502 1368.9103 1371.1303 1376.6903 1379.4703 1381.6903 1387.2504 1392.8104 1397.8104 1403.3705 1405.5905">good relationship</tspan></text>
<path transform="matrix(.7175364,0,0,.7175364,-617.38809,-509.45085)" d="M1333 805H1346V816H1333Z" fill="#66cc00"/>
<text xml:space="preserve" transform="matrix(.7175364 0 0 .7175364 -617.7469 -509.80964)" font-size="10" font-family="ArialMT"><tspan y="814" x="1335 1342.22 1347.78 1351.11 1353.33 1358.33 1361.11 1369.44 1375">Christmas</tspan></text>
<path transform="matrix(.7175364,0,0,.7175364,-617.38809,-509.45085)" d="M1333 818H1341V829H1333Z" fill="#66cc00"/>
<text xml:space="preserve" transform="matrix(.7175364 0 0 .7175364 -617.7469 -509.80964)" font-size="10" font-family="ArialMT"><tspan y="827" x="1335 1340.56 1342.78 1346.11 1348.89 1354.4501 1360.0101 1365.5702">birthday</tspan></text>
<path transform="matrix(.7175364,0,0,.7175364,-617.38809,-509.45085)" d="M1333 779H1417V790H1333Z" fill="#ea6b66"/>
<text xml:space="preserve" transform="matrix(.7175364 0 0 .7175364 -617.7469 -509.80964)" font-size="10" font-family="ArialMT"><tspan y="788" x="1335 1340 1345.56 1347.78 1352.78 1355 1360.56">suicide</tspan></text>
<text xml:space="preserve" transform="matrix(.7175364 0 0 .7175364 -617.7469 -509.80964)" font-size="16" font-family="ArialMT"><tspan y="846" x="1160.7656 1172.3176 1181.2136 1186.5416 1191.8696 1200.7656 1208.7656">Correct</tspan></text>
<text fill="#ea6b66" xml:space="preserve" transform="matrix(.7175364 0 0 .7175364 -617.7469 -509.80964)" font-size="10" font-family="Arial" font-weight="bold" font-style="italic"><tspan y="762" x="1166.4375 1172.5475 1178.1076 1181.4375 1186.9976 1192.5576 1195.8876 1201.4476">detected</tspan></text>
<path transform="matrix(.7175364,0,0,.7175364,-617.38809,-509.45085)" d="M1140 767H1234V778H1140Z" fill="#ea6b66"/>
<text xml:space="preserve" transform="matrix(.7175364 0 0 .7175364 -617.7469 -509.80964)" font-size="10" font-family="ArialMT"><tspan y="776" x="1142 1145.33 1148.11 1153.67 1156.2676 1159.0476 1167.3776 1172.3776 1177.3776 1182.9376 1188.4977 1193.4977">r/offmychest</tspan></text>
<path transform="matrix(.7175364,0,0,.7175364,-617.38809,-509.45085)" d="M1140 780H1214V791H1140Z" fill="#ea6b66"/>
<text xml:space="preserve" transform="matrix(.7175364 0 0 .7175364 -617.7469 -509.80964)" font-size="10" font-family="ArialMT"><tspan y="789" x="1142 1147.56 1153.1201 1156.4501 1161.4501 1163.67 1169.2301 1174.7902 1177.5702 1182.5702 1185.3502 1190.9103 1196.4703 1202.0304 1207.5905">nursing student</tspan></text>
<path transform="matrix(.7175364,0,0,.7175364,-617.38809,-509.45085)" d="M1140 793H1184V804H1140Z" fill="#ea6b66"/>
<text xml:space="preserve" transform="matrix(.7175364 0 0 .7175364 -617.7469 -509.80964)" font-size="10" font-family="ArialMT"><tspan y="802" x="1142 1147.56 1153.1201 1158.1201 1160.3401 1165.9002 1168.6802">anxiety</tspan></text>
<path transform="matrix(.7175364,0,0,.7175364,-617.38809,-509.45085)" d="M1141 806H1175V817H1141Z" fill="#ea6b66"/>
<text xml:space="preserve" transform="matrix(.7175364 0 0 .7175364 -617.7469 -509.80964)" font-size="10" font-family="ArialMT"><tspan y="815" x="1143 1145.78 1151.3401 1156.3401 1161.9002 1164.6802 1170.2402 1173.5702 1179.1303 1184.1303 1189.6903">take prozac</tspan></text>
<path transform="matrix(.7175364,0,0,.7175364,-617.38809,-509.45085)" d="M1141 819H1155V830H1141Z" fill="#ea6b66"/>
<text xml:space="preserve" transform="matrix(.7175364 0 0 .7175364 -617.7469 -509.80964)" font-size="10" font-family="ArialMT"><tspan y="828" x="1143 1148 1153.56 1155.78 1160.78 1163 1168.56">suicide</tspan></text>
<path transform="matrix(.7175364,0,0,.7175364,-617.38809,-509.45085)" stroke-width="1.25" stroke-linecap="butt" stroke-miterlimit="10" stroke-linejoin="miter" fill="none" stroke="#007fff" d="M957 742.97H1030.16"/>
<path transform="matrix(.7175364,0,0,.7175364,-617.38809,-509.45085)" d="M1035.6 742.97 1028.35 746.59 1030.16 742.97 1028.35 739.34 1035.6 742.97Z" fill="#007fff"/>
<path transform="matrix(.7175364,0,0,.7175364,-617.38809,-509.45085)" stroke-width="1.25" stroke-linecap="butt" stroke-miterlimit="10" stroke-linejoin="miter" fill="none" stroke="#007fff" d="M1035.6 742.97 1028.35 746.59 1030.16 742.97 1028.35 739.34 1035.6 742.97Z"/>
<text fill="#027ffe" xml:space="preserve" transform="matrix(.7175364 0 0 .7175364 -617.7469 -509.80964)" font-size="14" font-family="ArialMT"><tspan y="755" x="975.6094 980.27139 988.05538 995.83938 1003.62338 1006.7313">repair</tspan></text>
<path transform="matrix(.7175364,0,0,.7175364,-617.38809,-509.45085)" d="M862 805H956V816H862Z" fill="#ea6b66"/>
<text xml:space="preserve" transform="matrix(.7175364 0 0 .7175364 -617.7469 -509.80964)" font-size="10" font-family="ArialMT"><tspan y="814" x="864 867.33 870.11007 875.67007 878.2676 881.0476 889.3776 894.3776 899.3776 904.9376 910.4976 915.4976">r/offmychest</tspan></text>
<path transform="matrix(.7175364,0,0,.7175364,-617.38809,-509.45085)" d="M862 818H936V829H862Z" fill="#ea6b66"/>
<text xml:space="preserve" transform="matrix(.7175364 0 0 .7175364 -617.7469 -509.80964)" font-size="10" font-family="ArialMT"><tspan y="827" x="864 869.56 875.12 878.45 883.45 885.67 891.23 896.79 899.57 904.57 907.35006 912.91006 918.47006 924.03 929.59">nursing student</tspan></text>
<path transform="matrix(.7175364,0,0,.7175364,-617.38809,-509.45085)" d="M959 805H962.21L964.5 808.26 966.79 805H970L966.11 810.5 970 816H966.79L964.5 812.75 962.21 816H959L962.67 810.5 959 805Z" fill="#ff0000"/>
<path transform="matrix(.7175364,0,0,.7175364,-617.38809,-509.45085)" d="M939 818H942.21L944.5 821.26 946.79 818H950L946.11 823.5 950 829H946.79L944.5 825.75 942.21 829H939L942.67 823.5 939 818Z" fill="#ff0000"/>
</g>
</svg>
